<svg id="Layer_1" data-name="Layer 1" xmlns="http://www.w3.org/2000/svg" width="212" height="118" viewBox="0 0 212 118"><defs><style>.cls-1{fill:#006837;}.cls-2{fill:#fff;}.cls-3{fill:#ed1c24;}.cls-4{font-size:21px;font-family:AmericanTypewriterITCPro-Lt, American Typewriter ITC Pro;}.cls-5{fill:#3a7c41;}</style></defs><title>logo_tusci</title><path d="M86.4,14.8c.35,0,.49.14.49.35,0,1-2.31,1.68-6,2.1-9.17,1.05-31.22.21-46.27,2.59-9.8,1.54-16.94,5.6-16.94,11.62a5.1,5.1,0,0,0,2.66,4.69c1.26.84,3.08.84,3.08,1.68,0,.49-.42.84-1.05.84a7.26,7.26,0,0,1-6.72-7c0-8.19,7.91-12,18.48-13.86,17.64-2.94,43.05-.28,51-2.8A5.9,5.9,0,0,1,86.4,14.8ZM57.62,22.29a.48.48,0,0,1,.49.49c0,.28-.28.7-.84,1.33A161.53,161.53,0,0,0,39.42,47.29c-6.79,10.57-12,18.76-16.52,27.23-1.26,2.38-1.68,4.2-3.08,4.2A1,1,0,0,1,18.7,77.6C18.7,75.43,27.94,60.24,37,47,44.6,35.66,55.8,22.29,57.62,22.29Z"/><path d="M68.4,68.43c-2.53,0-4.92-1.77-4.9-5.57l-.42-.17c-2.94,3.37-6.52,5.67-9.73,5.67a5.21,5.21,0,0,1-5.46-5.6c0-5,4.2-11.48,7.49-15.19,1.4-1.61,2-2,2.87-2q.84,0,.84.63a4.87,4.87,0,0,1-1.33,2.24c-5,5.74-8.12,10.57-8.12,14.42,0,2.73,1.47,4.13,3.92,4.13,3.22,0,7.14-3,10.57-7.49a35.76,35.76,0,0,1,6.09-10.85c2-2.52,4.06-5.25,5.39-5.25.28,0,.35.13.35.42,0,.63-.77,2.17-2.1,4.13-1.75,2.66-4.48,6.37-7.7,10.5a10.6,10.6,0,0,0-.91,4.69c0,2.59,1.33,3.85,3.43,3.85,4.06,0,8.75-4.27,13.51-11.34a.88.88,0,0,1,.7-.49.72.72,0,0,1,.7.77C83.59,57,76,68.43,68.4,68.43Z"/><path d="M84.92,69.27c-4.27,0-6.16-1.26-6.16-2.8a1.87,1.87,0,0,1,1.75-1.61c1.75,0,1.89,1.33,3.85,2.8,2.73,0,6-2.59,6-7.35,0-3.71-1.68-6.79-2.45-10.64-5.53,9.59-11.41,16.1-13,16.1-.49,0-.77-.21-.77-.56a1.09,1.09,0,0,1,.49-.77c4.2-3.36,8.89-10.43,13-17.37l0-.08c-.21-3.18,1.26-6.15,3.13-6.15.84,0,1.19.42,1.19,1.12,0,1.48-1,3.37-2.94,6.17,1.12,5.6,3.36,8.75,3.36,12.53a9.18,9.18,0,0,1-3.57,7c8.19-1,12.18-6.09,16.24-12a.88.88,0,0,1,.7-.49c.42,0,.7.21.7.63,0,.91-3.92,7.07-8.47,10.15C94.65,68.15,90.52,69.27,84.92,69.27Z"/><path d="M132.59,55.62a.88.88,0,0,1,.7-.49.66.66,0,0,1,.7.7c0,.49-1.05,2-2.45,3.92-2.94,4.06-8,9.66-16.87,9.66-6.93,0-10.64-3.64-10.64-9.1,0-8.19,9.87-16.94,18.41-16.94,2.94,0,4.41,1.61,4.41,4.06,0,2-1.68,4.13-2.94,4.13a.86.86,0,0,1-.84-.91c0-1,1.47-2.31,1.47-4.13,0-1.26-.7-1.82-2.24-1.82-6.72,0-15.89,7.84-15.89,15.82,0,4.48,2.66,7.35,8.54,7.35C122.65,67.87,127.27,63.46,132.59,55.62Z"/><path d="M130.14,63c0-5.25,5-12.32,10.57-18.34a1.11,1.11,0,0,1,.84-.35.88.88,0,0,1,1,.84,1.73,1.73,0,0,1-.49,1.05c-3.92,4.55-9.73,11.83-9.73,16.66,0,2.73,1.19,3.85,3.5,3.85,3.71,0,8.68-4.06,13.44-11.13a.88.88,0,0,1,.7-.49.72.72,0,0,1,.7.77c0,1.05-7.63,12.53-15.19,12.53C132.17,68.43,130.14,66.89,130.14,63ZM154.5,26.77c.77,0,1.12.28,1.12,1,0,1.44-2.74,4.22-4.64,4.06a1,1,0,0,1-.76-.52C149.71,29.85,152.44,26.77,154.5,26.77Z"/><rect class="cls-1" x="27" y="74" width="41" height="5"/><rect class="cls-2" x="68" y="74" width="41" height="5"/><rect class="cls-3" x="109" y="74" width="41" height="5"/><text class="cls-4" transform="translate(86.74 102.08)">Ristorante</text><path class="cls-5" d="M153.05,37.14a10.85,10.85,0,0,1-6,.58,4.59,4.59,0,0,1-3.52-2.81,6.19,6.19,0,0,1,1-5.5A12.23,12.23,0,0,1,150.48,25a15.44,15.44,0,0,1,3.35-.79,27.61,27.61,0,0,1,9.09.52c2.45.56,4.08,1.31,4.17,1.6,0,0,0,0,0,.05a27.2,27.2,0,0,0-3.63,3.09c-1.61,1.48-3.61,3.32-5.75,5A16,16,0,0,1,153.05,37.14Z"/><path class="cls-5" d="M150.47,24.92l0,.09h0a15.21,15.21,0,0,1,3.34-.79,27,27,0,0,1,9.14.54c2.71.62,4,1.35,4.06,1.54h0a27.35,27.35,0,0,0-3.65,3.09c-1.6,1.48-3.6,3.32-5.74,5.06A16.26,16.26,0,0,1,153,37.1a10.83,10.83,0,0,1-6,.57,4.54,4.54,0,0,1-3.49-2.78,6.15,6.15,0,0,1,1-5.45A12.08,12.08,0,0,1,150.5,25l0-.09m0,0c-5.37,1.95-8.22,6.62-7,10,1.09,3,5.22,3.85,9.59,2.26a16.1,16.1,0,0,0,4.65-2.67c4.36-3.54,8.08-7.46,9.37-8.13.77-.41-6-3.15-13.26-2.27a15.29,15.29,0,0,0-3.36.8Z"/><path class="cls-2" d="M144,35.05a28.31,28.31,0,0,1,6.28-4.42c.32-.16,1.3-.66,2.58-1.17A32.12,32.12,0,0,1,163,27.32"/><path class="cls-2" d="M144,35.08s0,0,0,0,0,0,0,0a28.6,28.6,0,0,1,6.28-4.42c.8-.41,1.72-.83,2.59-1.17A32.15,32.15,0,0,1,163,27.29s0,0,0,0a0,0,0,0,1,0,0,32.09,32.09,0,0,0-10.1,2.14c-.86.34-1.78.76-2.57,1.17A27.93,27.93,0,0,0,144,35.08Z"/><path class="cls-2" d="M148.1,32.68A5.76,5.76,0,0,1,150.2,28"/><path class="cls-2" d="M148.11,32.71h0s0,0,0,0a6,6,0,0,1,.34-2.19A5.87,5.87,0,0,1,150.18,28a0,0,0,0,1,0,0,.06.06,0,0,1,0,.06,5.75,5.75,0,0,0-1.76,2.47,5.67,5.67,0,0,0-.33,2.17A0,0,0,0,1,148.11,32.71Z"/><path class="cls-2" d="M151.22,30.75a5.55,5.55,0,0,1,1.06-1.93,5.84,5.84,0,0,1,2.51-1.74"/><path class="cls-2" d="M151.23,30.78h0s0,0,0-.05a5.67,5.67,0,0,1,1.07-1.94,5.84,5.84,0,0,1,2.53-1.75,0,0,0,0,1,0,0,0,0,0,0,1,0,.05h0a5.77,5.77,0,0,0-2.45,1.71,5.65,5.65,0,0,0-1.06,1.92A0,0,0,0,1,151.23,30.78Z"/><path class="cls-2" d="M147.94,32.22a5.73,5.73,0,0,0,1.65,1.45,5.91,5.91,0,0,0,3,.78"/><path class="cls-2" d="M152.56,34.48h0a5.91,5.91,0,0,1-3-.78,5.85,5.85,0,0,1-1.67-1.46.06.06,0,0,1,0-.06,0,0,0,0,1,.05,0,5.81,5.81,0,0,0,1.65,1.44,5.71,5.71,0,0,0,2.94.77s0,0,0,0S152.57,34.48,152.56,34.48Z"/><path class="cls-2" d="M151.33,30.93a5.75,5.75,0,0,0,5.1.52"/><path class="cls-2" d="M156.4,31.49a5.79,5.79,0,0,1-3,.28,5.67,5.67,0,0,1-2.07-.81,0,0,0,0,1,0-.06,5.49,5.49,0,0,0,2,.79,5.64,5.64,0,0,0,3-.28s0,0,.05,0,0,0,0,0Z"/><rect class="cls-2" x="121.53" y="46.47" width="0.76" height="1.26" transform="translate(-8.76 44.54) rotate(-20)"/></svg>
